<mxfile host="Electron" agent="Mozilla/5.0 (Windows NT 10.0; Win64; x64) AppleWebKit/537.36 (KHTML, like Gecko) draw.io/24.7.17 Chrome/128.0.6613.36 Electron/32.0.1 Safari/537.36" version="24.7.17">
  <diagram name="Page-1" id="0ezgHzM6wQDXnF7u2Tk8">
    <mxGraphModel dx="875" dy="598" grid="1" gridSize="5" guides="1" tooltips="1" connect="1" arrows="1" fold="1" page="1" pageScale="1" pageWidth="827" pageHeight="1169" math="0" shadow="0">
      <root>
        <mxCell id="0" />
        <mxCell id="1" parent="0" />
        <mxCell id="8wpUtvVPPgkO4Tis7W2E-1" value="&lt;font style=&quot;font-size: 14px;&quot;&gt;Building&lt;/font&gt;" style="rounded=0;whiteSpace=wrap;html=1;fillColor=#404040;fontColor=#F3E5A6;" vertex="1" parent="1">
          <mxGeometry x="100" y="100" width="110" height="20" as="geometry" />
        </mxCell>
        <mxCell id="8wpUtvVPPgkO4Tis7W2E-2" value="&lt;font style=&quot;font-size: 14px;&quot;&gt;Objects&lt;/font&gt;" style="rounded=0;whiteSpace=wrap;html=1;fillColor=#404040;fontColor=#F3E5A6;" vertex="1" parent="1">
          <mxGeometry x="100" y="120" width="110" height="20" as="geometry" />
        </mxCell>
        <mxCell id="8wpUtvVPPgkO4Tis7W2E-3" value="&lt;font style=&quot;font-size: 14px;&quot;&gt;Interactions&lt;/font&gt;" style="rounded=0;whiteSpace=wrap;html=1;fillColor=#404040;fontColor=#F3E5A6;" vertex="1" parent="1">
          <mxGeometry x="100" y="140" width="110" height="20" as="geometry" />
        </mxCell>
        <mxCell id="8wpUtvVPPgkO4Tis7W2E-4" value="&lt;font style=&quot;font-size: 14px;&quot;&gt;NPCs&lt;/font&gt;" style="rounded=0;whiteSpace=wrap;html=1;fillColor=#404040;fontColor=#F3E5A6;" vertex="1" parent="1">
          <mxGeometry x="100" y="160" width="110" height="20" as="geometry" />
        </mxCell>
        <mxCell id="8wpUtvVPPgkO4Tis7W2E-5" value="" style="rounded=0;whiteSpace=wrap;html=1;fillColor=#636363;" vertex="1" parent="1">
          <mxGeometry x="100" y="180" width="110" height="200" as="geometry" />
        </mxCell>
        <mxCell id="8wpUtvVPPgkO4Tis7W2E-6" value="&lt;font style=&quot;font-size: 14px;&quot;&gt;&amp;lt;&lt;/font&gt;" style="rounded=0;whiteSpace=wrap;html=1;fillColor=#404040;fontColor=#F3E5A6;" vertex="1" parent="1">
          <mxGeometry x="120" y="360" width="25" height="20" as="geometry" />
        </mxCell>
        <mxCell id="8wpUtvVPPgkO4Tis7W2E-7" value="&lt;font style=&quot;font-size: 14px;&quot;&gt;&amp;gt;&lt;/font&gt;" style="rounded=0;whiteSpace=wrap;html=1;fillColor=#404040;fontColor=#F3E5A6;" vertex="1" parent="1">
          <mxGeometry x="145" y="360" width="25" height="20" as="geometry" />
        </mxCell>
        <mxCell id="8wpUtvVPPgkO4Tis7W2E-8" value="&lt;font style=&quot;font-size: 14px;&quot;&gt;1/3&lt;/font&gt;" style="rounded=0;whiteSpace=wrap;html=1;fillColor=#404040;fontColor=#F3E5A6;" vertex="1" parent="1">
          <mxGeometry x="170" y="360" width="40" height="20" as="geometry" />
        </mxCell>
        <mxCell id="8wpUtvVPPgkO4Tis7W2E-9" value="&lt;font style=&quot;font-size: 14px;&quot;&gt;New&lt;/font&gt;" style="rounded=0;whiteSpace=wrap;html=1;fillColor=#404040;fontColor=#F3E5A6;" vertex="1" parent="1">
          <mxGeometry x="210" y="100" width="35" height="20" as="geometry" />
        </mxCell>
        <mxCell id="8wpUtvVPPgkO4Tis7W2E-10" value="&lt;font style=&quot;font-size: 14px;&quot;&gt;Save&lt;/font&gt;" style="rounded=0;whiteSpace=wrap;html=1;fillColor=#404040;fontColor=#F3E5A6;" vertex="1" parent="1">
          <mxGeometry x="245" y="100" width="40" height="20" as="geometry" />
        </mxCell>
        <mxCell id="8wpUtvVPPgkO4Tis7W2E-11" value="&lt;font style=&quot;font-size: 14px;&quot;&gt;Load&lt;/font&gt;" style="rounded=0;whiteSpace=wrap;html=1;fillColor=#404040;fontColor=#F3E5A6;" vertex="1" parent="1">
          <mxGeometry x="285" y="100" width="40" height="20" as="geometry" />
        </mxCell>
        <mxCell id="8wpUtvVPPgkO4Tis7W2E-12" value="&lt;font style=&quot;font-size: 14px;&quot;&gt;Light map&lt;/font&gt;" style="rounded=0;whiteSpace=wrap;html=1;fillColor=#f5f5f5;fontColor=#333333;strokeColor=#666666;" vertex="1" parent="1">
          <mxGeometry x="210" y="120" width="75" height="20" as="geometry" />
        </mxCell>
        <mxCell id="8wpUtvVPPgkO4Tis7W2E-13" value="" style="shape=image;verticalLabelPosition=bottom;labelBackgroundColor=default;verticalAlign=top;imageAspect=0;image=data:image/png,iVBORw0KGgoAAAANSUhEUgAAAakAAAAPCAYAAABeHjAcAAAAAXNSR0IArs4c6QAAAARnQU1BAACxjwv8YQUAAAAJcEhZcwAADsMAAA7DAcdvqGQAAAcISURBVHhe7VzNbhxFEK6Z2XW88VrCxLcEXyzZ5IJ4ghxQRK4555CLFfIciEdAPAY8QmQkFAlF5IJvKImUgGRCjGKCs17vzgz10z3T8/+zO/aY9Ce1q7r+uqenp2t27bJz/fp1uHXrVggWFhYWFhY9wsHBATg7Oztw7949m6QsLCwsLHqF/f19SVL3798Pt7Y+gcFgoFQdIqR8iK02DWra5VH0ZUqi+nGOTj04mngwcEPYGp/CwPGzdpov6mdoanzNYwtZ5qDEQUoaotgP3ZiPKEH6IbjCh6aN+Ec6liVtIplBmUebQp2ic/w5cefYFwyDIQzDlYRNRFW8PJ2pz9Up6gcOBLw+BL1W0oQnxPJYjz8ztppHkpKbflk5wbSpkoewtubCeOyC7+N+OpohlfvfJF65bYgxpzCfT8mA4Thyzx1H1i9J3QJ5Hb3ELdNV+RbJx+MJDIdzmM2G8P79OKPXPloe9/P1sRx/OrJ+RE2e1o7MaYeRaVYmO5BprszgI0pyZJHn+6T8zHETPDNJWTQH5N8en8F0SnsGwPMANq8NmJJe7MwYSHhMQ6ZiFctk3L7j+x9+kiT18OFX4YO9PVhfHytVhwjxwPfxkCNKLUA+UDQ0eUOn5Xn6SJayKxoj4WvoDN/9l1fhx9/XYB0fngc3/4D1AR4EOXY8BvOGvOYYpq3v+3jwuHgYe5hWVQsHSLEpWYjNx34Y2WhdbBPZoW+Icp9kqCOZxDOo4iWu9EPsJ8cgG6LKDvX/uD68XHmnbibAxmwDPpp9zDaJ2NgojsRTc1Gy5JzjeckYyg7lxL+feXCGB32I6xhiohfqQ4DrV1eGN4plsV63fJnmFxljZ2cIu7tX4PQ0gEePjmAymUX2yxrj5OQQ22u6DQzH8cB1B0ileR5RkWm563qKLltG4wxzZNqOqJ4L2Qm/u/sKNjbewfHxBjx79inK8scw+9Q8PLE1r8dO+lLCCpAGTD3PZ97FA9olnijuZZYl2mJ2nifjuUhdHj/29bA5+OLLdsyTzI9kEo/mGsCTp0fw5+tTvq+jVRdufzGGqyMntmNfiRHx6jopgZlzSdsxRbvLgK+/+YVfty16iKr3nPN+D4pe6i16D3kbV51LBJnz8ie+jLUojIEJIQ9dflIpnMryl64XsEmqlyjebbT11Qf4XOiv9ZqjyqdMn6+TeTb3i1Glt8jHImveFnXiLn/srhJbUfIpBNnXmkZ3yev/Cpukeos2D16VT7uYpUlRtSwWmUubeVq0X9Ou17t9/DpJqNEnCCP5kFulbyr56N8hLQPpoZtchqDoyUs9sUuc80XAJqneofKpUTSJsl+Fiq7Ij1A0ZtVcSlD4XJTNk7DAmB802tzDrte6fOyqBCF/DJFFncRViQ6TT3pqjZIoI38u5a+L+Uja0zUv8TrPCTZJ9QhliYa3G3+V1xRVPm1iloO+cmz3KCx/Lh8uytayzjp3dS8WG7vpgd92J9ZBnbkkbEoSRMPLSoHidnedFw2bpHqCqi3WxRa8uDGzj2QXY1n0C3UP9aaJKEa5Y92wheMXyIs+hdX9dNYmkbZeoksIm6QuBaq2ZJstSz75fvTINP9iQaPMr0jXdiyLLNqsv4lF/RdBfnxJGhc5ryQo+bRPpOXoLO4CT/RFw9ZJaZ3he751Uj74GIfrhqIaIV3rJFTL0nVI0pe6pkwdUqSPbSVGrNdjaBtd12T6xbVO0k/XSa36I1gNRhiHCo+x8Vd9iufHQqgUJrsYg96LlE3CVtmxPOZnARX0potZqX7ILI7tRoY3h/vVMpOSPIBr1zxu83kIL15MkOq6J/HTPkm/ZrKzs39hNjvBvkAKWako12xyD5KytJ0ugjVl0ura6Ub3Nuaz+vR8NjePYXX1jOuknj+/CbrWieqoPK+q7krL4rqruBZL6qTMOiSzXsisGYrqqJCyTtcXRTVHYqvrmrS/6VtlJy1Zw1RWg/Xk6d+ZOqm1Ea5cyi7ZV/GM62A+dW26FusygOqkOEnt7e2Fd768jYuBq9A16GHjQ52o4gNTZuj4QM+Ra571ZbqUPHccw0b5/PrmChy8WYXRIIA7N97AyJsZ+pQvx8SGR3kifmSrZbqv9TEf+D4f3rjF8PAhSgmBeEW5UcKQQ576uM2SttRYj3JlH7DelJFNbE8JK5JzE11CbsQk+QQfgr8GE7mXFhZLAv23icPDG3iIU0KiBEZUeElSabnu5+mJSpKiRMBJCnlKHpwkmCeKuognW+H5kxId6NTnRJK2Ez3bUV/5xP5iQ0khaaPiKTsdR4/DOvYJ4Ldn7+DtMZ47iJUVBz7/DF8GV+hFRPuqWHqMjCyel/BJOxob3yd6j2+/+xmc7e1tuHv3Lr2eWVhYWFhY9AaPHz8Gh/5f32h0Dp+gLCwsLCwsGmA6ncJ/xw+JIjQ9js4AAAAASUVORK5CYII=;fillColor=#f5f5f5;fontColor=#333333;strokeColor=#666666;" vertex="1" parent="1">
          <mxGeometry x="285" y="120" width="200" height="21.35" as="geometry" />
        </mxCell>
        <mxCell id="8wpUtvVPPgkO4Tis7W2E-14" value="&lt;font style=&quot;font-size: 12px;&quot;&gt;Collision Map&lt;/font&gt;" style="rounded=0;whiteSpace=wrap;html=1;fillColor=#f5f5f5;fontColor=#333333;strokeColor=#666666;" vertex="1" parent="1">
          <mxGeometry x="210" y="140" width="75" height="20" as="geometry" />
        </mxCell>
        <mxCell id="8wpUtvVPPgkO4Tis7W2E-15" value="&lt;font style=&quot;font-size: 14px;&quot;&gt;Full Screen&lt;/font&gt;" style="rounded=0;whiteSpace=wrap;html=1;fillColor=#404040;fontColor=#F3E5A6;" vertex="1" parent="1">
          <mxGeometry x="325" y="100" width="90" height="20" as="geometry" />
        </mxCell>
      </root>
    </mxGraphModel>
  </diagram>
</mxfile>
